# xmcd CD database file
#
# Track frame offsets:
#	150
#	16204
#	31634
#	46380
#	63737
#	83767
#	99817
#	113422
#	130779
#	154039
#	173874
#	191389
#
# Disc length: 2765 seconds
#
# Revision: 0
# Processed by: cddbd v1.5.2PL0 Copyright (c) Steve Scherf et al.
# Submitted via: CDex 1.70beta2
#
DISCID=830acb0c
DTITLE=Oscar Peterson - Plays Harold Arlen - Kind Of Peterson CD-2
DYEAR=1954
DGENRE=Jazz
TTITLE0=Over The Rainbow (Arlen)
TTITLE1=It's Only A Paper Moon (Arlen)
TTITLE2=Ac Cent Tchu Ate The Positive (Arlen)
TTITLE3=Blues In The Night (Arlen)
TTITLE4=Come Rain Or Come Shine (Arlen)
TTITLE5=Let's Fail In Love (Arlen)
TTITLE6=That Old Black Magic (Arlen)
TTITLE7=Blues In The Night (Arlen)
TTITLE8=I Gotta Right To Sing The Blues (Arlen)
TTITLE9=As Long As I Live (Arlen)
TTITLE10=I've Got The World On A String (Arlen)
TTITLE11=Stormy Weather (Arlen)
EXTD=YEAR: 1954
EXTT0=
EXTT1=
EXTT2=
EXTT3=
EXTT4=
EXTT5=
EXTT6=
EXTT7=
EXTT8=
EXTT9=
EXTT10=
EXTT11=
PLAYORDER=
